<svg viewBox="0 0 44.32791185458598 50" xmlns="http://www.w3.org/2000/svg" xmlns:xlink="http://www.w3.org/1999/xlink" version="1.1" class="jsx-2263963463 artboard-inner" style="width: 41px; height: 46.2463px; max-height: 100%;"><g transform="translate(-10.644159112844068 -6.084701314220867) scale(0.6261270066378863)" id="lockup4-icon"><g fill="#FFFFFF"><path d="M40.703 54.953c0-3.494 1.526-8.489 3.802-14.001-4.137-7.347-7.755-13.026-7.755-13.026S17 58.918 17 69.824c0 10.908 8.843 19.75 19.75 19.75 7.975 0 14.829-4.736 17.947-11.542-8.309-4.356-13.994-13.064-13.994-23.079z"></path><path d="M66.75 9.718c-5.688 9.256-15.105 25.705-19.127 36.93-1.196 3.338-1.92 6.22-1.92 8.306 0 7.759 4.232 14.534 10.498 18.185A20.914 20.914 0 0 0 66.75 76c11.605 0 21.047-9.441 21.047-21.047 0-9.106-13.668-33.228-21.047-45.235z"></path></g></g></svg>